PathFileType	4	(X/Y/Z)	Walk8.trc
DataRate	CameraRate	NumFrames	NumMarkers	Units	OrigDataRate	OrigDataStartFrame	OrigNumFrames
200.000000	200.000000	6	59	mm	200.000000	829	1039
Frame#	Times		RFA1		LFHD		RFHD		RCAR		RWRR		RACR1		LMT1		RUA1		LTH3		LTB1		LLFC		LACR1		LTB2		LToe		LASI		LTB3		LElbow		LUA1		RASI		RLFC		CLAV		STRN		RTH3		LWRU		LFA1		RBack		RMT5		RMT1		LCAR		RCAL		LTH4		RTB2		RToe		RLMAL		LTH1		LBHD		LPSI		RPSI		RTH1		RTB1		RTH2		RTB4		RTB3		LTB4		C7		RElbowM		RBHD		LMT5		RElbow		RMMAL		LWRR		RTH4		LTH2		LLMAL		LMMAL		T10		RWRU		LCAL		LElbowM
			X1	Y1	Z1	X2	Y2	Z2	X3	Y3	Z3	X4	Y4	Z4	X5	Y5	Z5	X6	Y6	Z6	X7	Y7	Z7	X8	Y8	Z8	X9	Y9	Z9	X10	Y10	Z10	X11	Y11	Z11	X12	Y12	Z12	X13	Y13	Z13	X14	Y14	Z14	X15	Y15	Z15	X16	Y16	Z16	X17	Y17	Z17	X18	Y18	Z18	X19	Y19	Z19	X20	Y20	Z20	X21	Y21	Z21	X22	Y22	Z22	X23	Y23	Z23	X24	Y24	Z24	X25	Y25	Z25	X26	Y26	Z26	X27	Y27	Z27	X28	Y28	Z28	X29	Y29	Z29	X30	Y30	Z30	X31	Y31	Z31	X32	Y32	Z32	X33	Y33	Z33	X34	Y34	Z34	X35	Y35	Z35	X36	Y36	Z36	X37	Y37	Z37	X38	Y38	Z38	X39	Y39	Z39	X40	Y40	Z40	X41	Y41	Z41	X42	Y42	Z42	X43	Y43	Z43	X44	Y44	Z44	X45	Y45	Z45	X46	Y46	Z46	X47	Y47	Z47	X48	Y48	Z48	X49	Y49	Z49	X50	Y50	Z50	X51	Y51	Z51	X52	Y52	Z52	X53	Y53	Z53	X54	Y54	Z54	X55	Y55	Z55	X56	Y56	Z56	X57	Y57	Z57	X58	Y58	Z58	X59	Y59	Z59

829	4.145	-169.81	903.38	341.63	-12.091	1555.8	-11.509	-3.1065	1555.1	85.912	-159.26	740.39	350.57	-191.62	799.29	370.39	-142.5	1342.2	217.07	-323.21	35.052	-38.243	-185.32	1196.4	298.73	-188.21	550.59	-150.03	-274.63	328.14	-41.536	-239.78	488.6	-138.4	-114.98	1338.6	-140.72	-316.9	262.04	-112.65	-281.22	28.693	-40.07	-48.211	946.3	-157.56	-356.83	178.91	-57.746	-94.314	1058	-274.77	-87.899	1198.2	-219.43	-42.996	931.98	204.75	-10.706	453.59	196.67	-58.34	1312.1	41.024	5.1608	1195.5	45.912	-36.771	539.1	208.94	81.693	885.78	-277.85	18.966	987.89	-257.28	-279.57	1284.5	134.83	175.33	30.108	190.85	185.15	43.739	102.6	135.13	872.64	-252.54	-1.2433	25.321	142.87	-156.03	627.12	-177.2	52.8	277.23	183.32	225.75	48.143	109.61	48.938	64.321	187.09	-120.42	700.58	-203.22	-164.79	1534.1	-25.382	-286.13	958.49	-60.578	-293.99	949.03	71.385	-65.88	703.41	248.23	67.028	358.71	116.54	-0.27897	637.67	209.35	66.66	272.11	122.91	75.579	187.87	128.49	-319.39	255.76	-50.555	-220.18	1390.6	44.572	-261.53	1020.7	244.24	-172.23	1544.8	110.58	-344.65	24.58	-125.47	-229.03	1034.4	329.56	66.95	74.281	101.79	90.281	901.8	-204.9	-55.859	622.16	226.35	-105.68	615.27	-146.73	-435.44	108.44	-120.12	-424.09	108.88	-35.357	-270.39	1060.4	18.689	-156.29	797.31	304.79	-500.79	89.483	-78.653	-136.35	1006.6	-189.81
830	4.15	-164.52	903	342.8	-7.8822	1556.3	-9.6736	1.2321	1555.6	87.736	-153.84	740.02	351.59	-186.29	798.85	371.4	-137.9	1342.2	219.06	-323.01	35.031	-38.296	-180.34	1196.1	300.4	-182.33	550.8	-149.88	-270.18	328.29	-41.743	-233.88	488.77	-138.46	-110.58	1339.4	-138.89	-313.13	262.75	-113	-281.39	28.697	-40.068	-43.066	947.18	-156.37	-354.1	180.05	-58.154	-91.64	1058.6	-273.24	-84.848	1198.8	-218.08	-37.936	932.36	205.84	-5.7943	454.31	197.2	-53.862	1312.7	43.007	9.822	1196.1	47.941	-31.873	540.06	209.63	84.348	886.1	-276.07	21.788	988.41	-255.7	-274.97	1284.7	136.79	175.94	29.095	191.14	185.65	42.085	102.35	137.85	873.07	-250.87	-1.0156	25.744	142.97	-150.31	627.49	-176.83	56.076	277.11	183.38	226.45	45.787	109.25	49.682	64.409	187.11	-114.84	701.08	-202.65	-160.61	1534.6	-23.321	-281.07	958.8	-59.787	-288.94	949.47	72.158	-60.035	704.42	248.63	70.659	358.44	116.59	4.9484	638.48	209.87	69.36	271.89	122.86	77.413	187.53	128.31	-315.69	256.4	-50.891	-215.69	1391.1	46.729	-256.33	1020.4	245.6	-167.87	1545.4	112.64	-344.43	24.664	-125.4	-223.77	1033.9	330.88	67.554	74.07	101.7	93.112	902.42	-203.24	-50.686	623.22	226.88	-100.02	615.74	-146.18	-433.55	110.54	-120.58	-422.09	110.9	-35.84	-265.56	1060.9	19.687	-150.95	796.94	305.8	-499.02	92.83	-78.996	-133.18	1007.3	-187.85
831	4.155	-159.21	902.73	343.95	-3.6478	1556.8	-7.8305	5.5907	1556.3	89.566	-148.38	739.78	352.59	-180.92	798.52	372.41	-133.3	1342.2	221.03	-322.81	35.008	-38.332	-175.35	1195.9	302.07	-176.32	551.06	-149.77	-265.53	328.47	-41.999	-227.82	488.96	-138.58	-106.15	1340.3	-137.04	-309.19	263.5	-113.38	-281.58	28.698	-40.062	-37.934	948.15	-155.13	-351.17	181.25	-58.579	-89.023	1059.2	-271.68	-81.806	1199.5	-216.72	-32.863	932.9	206.94	-1.0109	455.01	197.71	-49.374	1313.4	44.986	14.482	1196.8	50.021	-27.032	541.06	210.36	86.844	886.39	-274.34	24.522	988.94	-254.14	-270.35	1284.8	138.72	176.46	28.295	191.41	186.07	40.63	102.09	140.4	873.42	-249.25	-0.81295	26.109	143.06	-144.49	627.92	-176.48	59.167	276.98	183.45	227.05	43.669	108.9	50.33	64.51	187.1	-109.2	701.67	-202.07	-156.4	1535.2	-21.263	-275.98	959.18	-59.069	-283.9	950	72.865	-54.287	705.47	249.07	74.168	358.19	116.71	10.092	639.35	210.41	71.917	271.69	122.83	79.117	187.22	128.13	-311.79	257.08	-51.26	-211.18	1391.6	48.866	-251.12	1020.2	246.94	-163.48	1546.2	114.69	-344.19	24.778	-125.32	-218.5	1033.6	332.19	68.054	73.898	101.59	95.816	903.01	-201.62	-45.582	624.32	227.47	-94.253	616.31	-145.64	-431.5	112.73	-121.02	-419.9	113	-36.306	-260.71	1061.3	20.686	-145.59	796.67	306.8	-497.05	96.337	-79.292	-130.05	1008.2	-185.84
832	4.16	-153.87	902.57	345.08	0.61116	1557.4	-5.9829	9.9685	1557	91.4	-142.9	739.64	353.59	-175.52	798.31	373.4	-128.7	1342.4	222.99	-322.59	34.986	-38.347	-170.34	1195.8	303.72	-170.17	551.37	-149.72	-260.66	328.67	-42.309	-221.58	489.17	-138.75	-101.7	1341.3	-135.19	-305.08	264.27	-113.8	-281.79	28.695	-40.052	-32.813	949.22	-153.84	-348.05	182.49	-59.022	-86.456	1059.9	-270.09	-78.768	1200.3	-215.36	-27.774	933.6	208.04	3.6188	455.68	198.19	-44.877	1314.1	46.955	19.139	1197.7	52.146	-22.262	542.09	211.1	89.185	886.66	-272.66	27.174	989.49	-252.58	-265.72	1285.1	140.59	176.9	27.681	191.65	186.41	39.371	101.84	142.79	873.68	-247.68	-0.63478	26.419	143.13	-138.58	628.44	-176.16	62.057	276.84	183.55	227.57	41.786	108.57	50.889	64.617	187.06	-103.51	702.35	-201.5	-152.17	1535.9	-19.211	-270.85	959.65	-58.421	-278.89	950.62	73.509	-48.643	706.54	249.54	77.54	357.95	116.89	15.146	640.24	210.95	74.329	271.5	122.84	80.695	186.93	127.96	-307.68	257.79	-51.664	-206.66	1392.2	50.979	-245.91	1020.1	248.27	-159.08	1547	116.72	-343.92	24.926	-125.22	-213.23	1033.4	333.48	68.462	73.759	101.47	98.397	903.56	-200.05	-40.55	625.44	228.11	-88.392	616.96	-145.12	-429.3	115.02	-121.42	-417.52	115.18	-36.752	-255.84	1061.9	21.69	-140.19	796.53	307.78	-494.87	100	-79.533	-126.96	1009.2	-183.79
833	4.165	-148.51	902.53	346.2	4.894	1558.1	-4.1342	14.364	1557.7	93.234	-137.38	739.63	354.56	-170.09	798.21	374.39	-124.1	1342.7	224.91	-322.36	34.966	-38.34	-165.32	1195.8	305.36	-163.89	551.72	-149.72	-255.56	328.88	-42.681	-215.16	489.39	-138.98	-97.224	1342.3	-133.32	-300.77	265.08	-114.25	-282.03	28.687	-40.036	-27.704	950.37	-152.5	-344.71	183.78	-59.481	-83.932	1060.7	-268.48	-75.728	1201.2	-213.99	-22.67	934.44	209.15	8.0707	456.31	198.64	-40.376	1315	48.908	23.789	1198.6	54.308	-17.581	543.11	211.84	91.378	886.89	-271.04	29.748	990.04	-251.04	-261.07	1285.5	142.43	177.27	27.226	191.87	186.69	38.3	101.59	145.02	873.86	-246.17	-0.48055	26.678	143.19	-132.56	629.02	-175.87	64.737	276.69	183.68	228.02	40.13	108.27	51.364	64.726	186.99	-97.768	703.13	-200.94	-147.92	1536.7	-17.171	-265.71	960.2	-57.837	-273.9	951.31	74.095	-43.106	707.61	250.06	80.763	357.71	117.14	20.107	641.14	211.49	76.595	271.32	122.89	82.15	186.66	127.8	-303.35	258.53	-52.103	-202.14	1392.8	53.069	-240.7	1020.1	249.59	-154.66	1547.9	118.75	-343.62	25.115	-125.1	-207.96	1033.4	334.77	68.789	73.649	101.33	100.86	904.07	-198.55	-35.597	626.55	228.79	-82.435	617.7	-144.61	-426.93	117.41	-121.79	-414.92	117.44	-37.172	-250.95	1062.5	22.699	-134.76	796.51	308.75	-492.47	103.83	-79.715	-123.91	1010.3	-181.7
834	4.17	-143.13	902.61	347.31	9.2001	1558.8	-2.2879	18.777	1558.5	95.065	-131.82	739.73	355.52	-164.62	798.22	375.37	-119.51	1343.1	226.81	-322.1	34.951	-38.308	-160.29	1195.9	306.97	-157.46	552.12	-149.79	-250.21	329.1	-43.117	-208.56	489.63	-139.27	-92.74	1343.5	-131.46	-296.27	265.93	-114.74	-282.27	28.674	-40.013	-22.609	951.6	-151.12	-341.14	185.11	-59.954	-81.448	1061.6	-266.84	-72.681	1202.3	-212.61	-17.552	935.43	210.25	12.322	456.88	199.07	-35.872	1316	50.84	28.43	1199.6	56.499	-13.007	544.1	212.57	93.43	887.11	-269.47	32.25	990.6	-249.51	-256.41	1285.9	144.21	177.57	26.904	192.06	186.91	37.407	101.35	147.11	873.95	-244.72	-0.34979	26.892	143.24	-126.45	629.67	-175.6	67.199	276.52	183.83	228.4	38.693	107.99	51.764	64.831	186.92	-91.979	703.99	-200.38	-143.65	1537.6	-15.149	-260.54	960.84	-57.309	-268.94	952.09	74.63	-37.679	708.66	250.61	83.824	357.48	117.45	24.968	642	212.03	78.715	271.15	122.98	83.489	186.42	127.67	-298.78	259.3	-52.576	-197.63	1393.6	55.133	-235.5	1020.2	250.9	-150.22	1548.9	120.76	-343.29	25.352	-124.95	-202.69	1033.4	336.06	69.047	73.565	101.18	103.21	904.54	-197.11	-30.729	627.64	229.52	-76.382	618.53	-144.12	-424.37	119.9	-122.12	-412.11	119.78	-37.561	-246.04	1063.2	23.716	-129.31	796.61	309.7	-489.81	107.81	-79.833	-120.88	1011.5	-179.57
